<?xml version="1.0" standalone="no"?>
<!DOCTYPE svg PUBLIC "-//W3C//DTD SVG 20010904//EN"
 "http://www.w3.org/TR/2001/REC-SVG-20010904/DTD/svg10.dtd">
<svg version="1.0" xmlns="http://www.w3.org/2000/svg"
 width="2800.000000pt" height="2800.000000pt" viewBox="0 0 2800.000000 2800.000000"
 preserveAspectRatio="xMidYMid meet">
<metadata>
Created by potrace 1.11, written by Peter Selinger 2001-2013
</metadata>
<g transform="translate(0.000000,2800.000000) scale(0.100000,-0.100000)"
fill="#000000" stroke="none">
<path d="M12610 27510 c-199 -41 -403 -158 -592 -338 -73 -70 -172 -177 -238
-259 -23 -29 -31 -31 -110 -37 -196 -16 -356 -43 -409 -70 -27 -15 -47 -47
-56 -94 -2 -13 -6 -31 -9 -40 -20 -70 -41 -368 -51 -709 -5 -193 -9 -215 -54
-318 -5 -11 -14 -33 -19 -50 -6 -16 -26 -74 -45 -128 -20 -53 -36 -101 -37
-105 0 -4 -14 -50 -30 -102 -56 -180 -227 -833 -246 -935 -2 -11 -8 -38 -13
-60 -15 -59 -62 -267 -67 -290 -20 -110 -38 -169 -56 -183 -12 -10 -35 -29
-52 -43 -39 -32 -530 -417 -786 -616 -20 -16 -219 -179 -300 -246 -45 -37 -90
-64 -146 -85 -220 -82 -884 -410 -1069 -526 -140 -89 -189 -123 -210 -147 -26
-32 -134 -204 -217 -349 -31 -52 -79 -135 -108 -185 -29 -49 -61 -106 -72
-125 -11 -19 -37 -64 -58 -100 -20 -36 -48 -85 -62 -110 -14 -25 -51 -90 -83
-145 -32 -55 -68 -118 -80 -140 -12 -22 -31 -56 -42 -75 -12 -19 -66 -116
-122 -215 -56 -99 -106 -187 -111 -195 -11 -18 -210 -366 -226 -395 -38 -70
-190 -324 -236 -395 -63 -98 -144 -284 -318 -730 -182 -467 -190 -489 -190
-501 0 -7 -13 -9 -37 -5 -164 26 -246 34 -318 31 -70 -3 -70 -4 -115 -53 -41
-45 -128 -176 -193 -294 -15 -27 -38 -68 -51 -91 -14 -24 -37 -66 -51 -92
l-25 -49 -68 -3 c-250 -10 -262 -17 -396 -218 -103 -154 -179 -291 -334 -600
-97 -193 -240 -487 -277 -570 -10 -22 -33 -71 -51 -110 -73 -157 -111 -240
-206 -455 -55 -124 -114 -254 -130 -290 -16 -36 -41 -91 -54 -123 -14 -32 -38
-87 -54 -123 -17 -35 -30 -66 -30 -69 0 -2 -13 -32 -29 -67 -16 -35 -101 -234
-191 -443 -89 -209 -168 -393 -175 -410 -7 -16 -23 -53 -34 -81 -11 -28 -29
-71 -39 -95 -39 -86 -462 -1107 -462 -1114 0 -3 -11 -28 -23 -57 -13 -29 -34
-80 -47 -113 -13 -33 -26 -64 -30 -70 -4 -5 -12 -26 -19 -45 -11 -34 -159
-403 -186 -465 -7 -16 -48 -117 -90 -224 -42 -107 -83 -208 -91 -225 -7 -17
-65 -164 -129 -326 -64 -162 -120 -304 -125 -315 -5 -11 -47 -119 -93 -240
-47 -121 -90 -231 -96 -245 -17 -41 -214 -561 -284 -750 -140 -378 -186 -527
-203 -665 -3 -22 -7 -51 -10 -65 -23 -139 -22 -781 1 -923 2 -12 6 -58 10
-102 3 -44 7 -91 9 -105 3 -14 7 -52 11 -85 6 -61 15 -137 21 -167 1 -9 6 -38
9 -65 11 -75 32 -197 55 -318 25 -127 24 -119 45 -210 9 -38 19 -78 21 -88 10
-50 88 -299 120 -380 86 -219 175 -346 273 -390 53 -24 188 -31 286 -16 243
39 565 155 975 352 117 56 176 84 375 177 44 20 120 56 169 79 49 23 116 55
150 71 33 15 111 51 171 80 61 29 173 81 250 117 77 36 205 97 284 134 79 38
144 69 146 69 3 0 149 69 340 160 44 21 143 67 220 103 77 36 190 88 250 117
61 29 143 68 183 86 167 78 222 104 317 149 55 26 132 62 170 80 39 18 149 70
245 115 96 45 211 99 255 120 44 20 118 55 165 78 47 22 153 71 235 110 83 38
200 93 260 122 61 28 135 63 165 77 172 80 288 135 313 148 40 21 48 19 43
-12 -3 -16 -10 -64 -16 -108 -7 -44 -13 -87 -15 -95 -2 -8 -6 -37 -9 -65 -4
-27 -8 -61 -11 -75 -7 -40 -14 -82 -20 -135 -4 -27 -8 -57 -11 -65 -2 -8 -6
-38 -9 -65 -3 -28 -7 -59 -9 -71 -2 -12 -7 -45 -11 -75 -4 -30 -8 -56 -10 -59
-1 -3 -6 -30 -9 -61 -4 -31 -8 -66 -11 -77 -3 -17 -18 -122 -40 -272 -4 -29
-15 -104 -20 -140 -2 -14 -7 -47 -10 -75 -4 -27 -13 -90 -20 -140 -15 -93 -23
-155 -29 -202 -5 -35 -18 -123 -21 -143 -2 -9 -6 -43 -10 -75 -4 -33 -9 -69
-12 -80 -2 -11 -6 -38 -9 -60 -2 -22 -9 -71 -15 -110 -6 -38 -12 -86 -15 -105
-2 -19 -11 -82 -19 -140 -9 -58 -18 -123 -21 -145 -3 -22 -7 -51 -9 -65 -7
-51 -15 -106 -20 -150 -4 -25 -8 -56 -10 -70 -2 -14 -7 -45 -10 -70 -3 -25 -8
-57 -10 -71 -3 -14 -7 -43 -10 -64 -9 -71 -26 -200 -30 -225 -2 -14 -6 -45
-10 -70 -5 -44 -13 -99 -20 -150 -2 -14 -7 -45 -10 -70 -3 -25 -8 -56 -10 -70
-2 -14 -7 -49 -10 -79 -4 -30 -8 -63 -11 -74 -2 -11 -6 -45 -9 -75 -3 -30 -7
-57 -9 -61 -2 -3 -7 -37 -10 -76 -4 -38 -9 -77 -11 -85 -2 -8 -6 -37 -10 -65
-3 -27 -8 -61 -10 -75 -2 -14 -9 -63 -15 -110 -6 -47 -12 -98 -15 -115 -2 -16
-7 -52 -10 -80 -6 -46 -10 -69 -20 -135 -2 -14 -6 -47 -10 -75 -9 -75 -25
-199 -29 -221 -2 -10 -7 -45 -11 -78 -3 -32 -8 -68 -10 -80 -2 -11 -6 -48 -10
-81 -4 -32 -8 -66 -10 -75 -1 -8 -6 -40 -9 -70 -4 -30 -8 -66 -11 -80 -4 -23
-30 -223 -40 -300 -12 -95 -16 -127 -20 -150 -2 -14 -7 -52 -10 -85 -4 -33 -8
-67 -10 -75 -2 -8 -7 -40 -10 -70 -7 -61 -14 -122 -20 -160 -2 -14 -7 -49 -10
-79 -4 -30 -8 -61 -10 -70 -2 -9 -6 -44 -10 -76 -4 -33 -9 -71 -11 -85 -2 -14
-6 -50 -10 -80 -3 -30 -7 -62 -9 -70 -2 -8 -7 -44 -10 -80 -4 -36 -9 -73 -11
-84 -2 -10 -6 -44 -9 -75 -4 -31 -8 -63 -10 -71 -2 -8 -7 -44 -10 -80 -3 -36
-10 -90 -15 -120 -5 -30 -12 -82 -16 -115 -3 -33 -8 -69 -9 -80 -2 -11 -6 -45
-9 -75 -4 -30 -9 -66 -11 -80 -2 -14 -7 -50 -10 -80 -3 -30 -8 -66 -10 -80 -2
-14 -7 -50 -10 -80 -3 -30 -8 -66 -10 -80 -2 -14 -7 -50 -10 -80 -3 -30 -8
-66 -10 -80 -3 -14 -7 -50 -10 -80 -3 -30 -7 -62 -9 -70 -3 -8 -7 -46 -11 -83
-3 -37 -8 -76 -10 -85 -1 -9 -6 -44 -10 -77 -3 -33 -8 -73 -10 -90 -2 -16 -7
-50 -10 -75 -14 -119 -17 -137 -20 -160 -3 -14 -7 -55 -11 -92 l-6 -68 7185 0
7185 0 -3 63 c-2 34 -6 134 -10 222 -3 88 -8 203 -11 255 -2 52 -6 149 -9 215
-3 66 -7 174 -10 240 -3 66 -7 170 -10 230 -3 61 -7 169 -10 240 -3 72 -7 175
-10 230 -2 55 -7 165 -10 245 -3 80 -7 186 -10 235 -6 115 -15 328 -20 475 -7
185 -14 376 -20 505 -3 66 -7 179 -10 250 -3 72 -7 189 -10 260 -6 138 -11
282 -20 510 -3 77 -8 194 -10 260 -3 66 -7 185 -10 265 -9 258 -14 413 -20
520 -3 58 -8 164 -11 235 -2 72 -7 166 -9 210 -2 44 -6 134 -10 200 -3 66 -7
156 -10 200 -2 44 -7 132 -10 195 -3 63 -8 142 -10 175 -3 33 -7 107 -10 165
-8 161 -14 268 -20 345 -7 101 -16 239 -20 320 -9 151 -21 330 -30 450 -3 33
-8 103 -10 155 -3 52 -7 115 -10 140 -2 25 -7 90 -11 145 -3 55 -8 120 -9 145
-2 25 -6 79 -9 120 -4 41 -8 104 -11 140 -2 36 -6 94 -9 130 -3 36 -8 99 -12
140 -3 41 -7 95 -9 120 -2 25 -6 81 -9 125 -6 86 -15 193 -20 238 -4 32 -17
32 149 -3 50 -11 101 -22 115 -24 14 -2 113 -23 220 -46 194 -41 429 -90 713
-149 82 -17 210 -45 285 -61 75 -16 148 -31 162 -34 14 -2 81 -16 150 -31 69
-15 136 -29 150 -31 14 -3 31 -7 39 -10 8 -2 30 -7 50 -10 19 -3 64 -12 100
-20 36 -8 77 -17 91 -20 22 -4 59 -12 95 -20 6 -1 25 -5 43 -8 28 -5 156 -33
187 -40 26 -6 72 -16 95 -20 14 -3 34 -7 45 -9 16 -4 241 -51 345 -72 14 -3
48 -10 75 -16 28 -6 61 -13 75 -15 13 -3 56 -12 95 -21 61 -13 96 -21 180 -37
11 -3 53 -12 92 -20 40 -9 87 -18 105 -21 18 -3 47 -10 63 -14 17 -5 48 -12
70 -16 81 -14 90 -16 107 -21 9 -3 27 -7 40 -9 13 -3 46 -9 73 -15 28 -6 59
-12 70 -14 11 -2 94 -20 185 -40 165 -35 195 -41 259 -52 18 -3 43 -8 55 -10
11 -2 55 -9 96 -15 41 -5 86 -12 99 -14 72 -12 171 -19 296 -19 359 -2 452 54
534 318 12 38 23 83 26 100 3 17 10 54 15 81 12 67 19 125 25 210 3 39 8 93
10 120 5 55 5 500 0 580 -11 202 -27 386 -41 495 -2 19 -6 55 -9 80 -5 50 -12
96 -25 185 -5 33 -12 78 -16 100 -16 106 -65 353 -88 440 -2 6 -6 24 -10 40
-4 17 -11 41 -16 55 -5 14 -23 72 -41 130 -17 58 -36 109 -40 115 -5 5 -9 15
-9 23 0 24 -78 170 -172 323 -51 82 -98 157 -103 167 -6 9 -23 37 -39 62 -16
25 -51 79 -77 120 -27 41 -53 80 -59 87 -5 7 -10 14 -10 17 0 5 -102 161 -181
279 -21 32 -39 60 -39 63 0 3 -5 10 -10 17 -6 7 -205 305 -443 662 -238 358
-477 715 -532 795 -355 523 -432 635 -860 1255 -251 362 -540 775 -710 1013
-61 84 -117 163 -125 175 -11 17 -230 321 -346 482 -8 11 -64 88 -125 170 -60
83 -117 159 -125 170 -43 60 -276 372 -287 385 -7 8 -23 31 -36 50 -14 19 -31
42 -38 50 -7 8 -35 43 -61 76 -109 142 -238 307 -247 318 -6 6 -26 31 -45 56
-19 25 -37 47 -40 50 -3 3 -37 43 -75 90 -38 47 -79 96 -91 110 -82 95 -123
141 -165 185 -26 28 -61 64 -76 80 -57 59 -138 127 -176 146 -45 24 -131 24
-260 2 l-82 -14 -25 28 c-14 16 -52 60 -85 99 -140 161 -260 282 -323 326 -40
28 -48 30 -99 23 -55 -7 -221 -58 -305 -94 l-44 -18 -49 76 c-153 239 -552
833 -599 893 -12 14 -31 39 -43 55 -12 15 -66 73 -120 129 -100 102 -144 149
-268 289 -38 43 -75 83 -80 89 -6 6 -53 58 -105 116 -52 58 -99 108 -105 112
-6 5 -4 8 5 9 8 0 24 2 35 4 11 2 45 6 75 9 117 11 190 21 365 51 227 39 582
114 810 171 77 20 147 37 155 39 38 8 200 51 360 95 96 26 194 53 217 59 56
15 75 35 67 69 -18 76 -94 172 -284 361 -133 133 -175 173 -431 412 -136 128
-201 190 -359 342 -133 129 -204 194 -305 282 -44 39 -82 72 -85 75 -4 5 -151
128 -235 199 -16 13 -353 285 -415 334 -8 7 -76 59 -150 116 -74 57 -138 107
-142 110 -4 3 -10 29 -14 56 -3 28 -7 57 -9 65 -1 8 -6 40 -9 70 -4 30 -11 78
-16 105 -5 28 -11 64 -14 80 -12 82 -41 240 -77 420 -45 223 -43 211 -59 280
-6 28 -14 61 -16 75 -3 14 -14 59 -26 100 -11 41 -22 84 -24 95 -3 15 -62 230
-88 320 -1 6 -8 30 -15 55 -7 25 -24 79 -37 120 -14 41 -31 95 -38 120 -15 50
-92 274 -106 305 -5 11 -23 58 -40 105 -53 144 -151 369 -218 500 -221 432
-448 627 -722 623 -145 -2 -295 -57 -656 -239 -132 -67 -259 -134 -282 -148
-23 -14 -42 -23 -42 -20 0 4 -6 2 -12 -4 -7 -5 -58 -32 -113 -60 -316 -158
-435 -191 -531 -146 -59 28 -154 86 -312 192 -79 54 -154 104 -167 112 -13 8
-81 54 -152 101 -430 289 -814 481 -1029 515 -21 3 -43 8 -48 11 -22 14 -187
9 -266 -7z m-1715 -8276 c226 -3 450 -7 499 -8 l90 -1 37 -185 c21 -102 41
-198 44 -215 64 -328 278 -1012 409 -1309 8 -17 24 -56 37 -86 53 -125 234
-475 320 -619 l92 -155 0 -650 c-1 -476 -4 -650 -12 -648 -6 1 -77 -31 -159
-72 -261 -131 -447 -209 -552 -230 -14 -3 -54 -13 -90 -21 -36 -9 -74 -17 -85
-19 -11 -2 -38 -8 -60 -15 -67 -19 -603 -147 -715 -171 -80 -18 -492 -117
-600 -146 -410 -107 -774 -235 -837 -293 -20 -19 -435 -191 -460 -191 -7 0
-13 -4 -13 -10 0 -5 -6 -10 -13 -10 -11 0 -80 -27 -222 -85 -11 -4 -24 -9 -30
-11 -10 -3 -293 -117 -330 -133 -11 -5 -56 -23 -100 -40 -44 -18 -88 -36 -97
-41 -10 -6 -22 -10 -28 -10 -6 0 -33 -11 -62 -25 -28 -14 -55 -25 -59 -25 -9
0 -541 -214 -595 -239 -23 -11 -44 -18 -47 -15 -2 3 3 22 13 42 31 65 60 131
60 136 0 3 13 33 29 68 16 35 45 99 64 143 132 303 421 965 432 990 16 36 14
30 210 480 86 198 186 427 222 508 l65 148 -17 42 c-41 104 -224 340 -376 485
l-26 25 46 91 c71 139 166 352 195 439 38 112 40 149 11 207 -14 27 -29 51
-35 55 -5 3 -14 14 -20 24 -8 16 -1 23 48 49 72 38 168 68 263 81 138 19 154
23 244 53 118 39 265 114 390 196 55 36 105 70 110 74 164 126 239 192 395
346 195 193 332 355 467 555 64 95 146 245 143 262 0 3 6 18 13 33 8 15 22 57
32 93 l17 65 116 -2 c65 -2 302 -6 527 -10z m6065 -1373 c81 -16 174 -24 250
-21 189 8 315 2 378 -17 35 -10 62 -23 61 -28 -1 -6 -10 -28 -20 -50 -34 -78
-34 -120 2 -188 43 -84 140 -224 271 -390 l109 -138 -61 -102 c-33 -56 -65
-109 -70 -117 -29 -46 -111 -225 -130 -279 -32 -97 -29 -132 16 -196 200 -277
353 -489 384 -530 42 -57 168 -231 328 -455 61 -85 115 -160 120 -165 5 -6 32
-44 61 -85 28 -41 106 -149 172 -240 157 -216 259 -360 259 -364 0 -2 -21 3
-47 11 -45 13 -114 33 -238 68 -66 18 -405 104 -430 109 -11 2 -47 11 -80 19
-33 9 -71 18 -85 21 -14 2 -55 11 -91 20 -66 15 -93 21 -146 31 -16 3 -55 12
-88 20 -50 12 -511 106 -595 121 -14 3 -77 14 -140 25 -63 12 -119 22 -125 23
-5 2 -32 6 -60 10 -73 11 -341 82 -459 120 -102 34 -264 102 -462 193 l-105
48 6 120 c4 66 8 149 10 185 3 36 7 108 10 160 3 52 8 129 11 170 2 41 6 116
9 165 13 246 16 301 22 319 3 10 33 62 67 115 211 326 438 771 595 1163 28 69
51 128 51 131 0 3 4 17 9 31 l10 24 88 -24 c48 -14 108 -29 133 -33z"/>
</g>
</svg>
